<?xml version="1.0" encoding="UTF-8" standalone="no"?><!DOCTYPE svg PUBLIC "-//W3C//DTD SVG 1.1//EN" "http://www.w3.org/Graphics/SVG/1.1/DTD/svg11.dtd"><svg width="100%" height="100%" viewBox="0 0 512 512" version="1.1" xmlns="http://www.w3.org/2000/svg" xmlns:xlink="http://www.w3.org/1999/xlink" xml:space="preserve" style="fill-rule:evenodd;clip-rule:evenodd;stroke-linejoin:round;stroke-miterlimit:1.41421;"><g id="Icon"><path d="M42.667,422.4c-4.711,0 -8.534,-3.814 -8.534,-8.533l0,-145.067c0,-4.719 3.823,-8.533 8.534,-8.533c4.71,0 8.533,3.814 8.533,8.533l0,145.067c0,4.719 -3.823,8.533 -8.533,8.533Z" style="fill:#d1d4d1;fill-rule:nonzero;"/><path d="M469.333,422.4c-4.71,0 -8.533,-3.814 -8.533,-8.533l0,-145.067c0,-4.719 3.823,-8.533 8.533,-8.533c4.711,0 8.534,3.814 8.534,8.533l0,145.067c0,4.719 -3.823,8.533 -8.534,8.533Z" style="fill:#d1d4d1;fill-rule:nonzero;"/><path d="M76.8,354.133c-4.71,0 -8.533,-3.814 -8.533,-8.533l0,-76.8c0,-4.719 3.823,-8.533 8.533,-8.533c4.71,0 8.533,3.814 8.533,8.533l0,76.8c0,4.719 -3.823,8.533 -8.533,8.533Z" style="fill:#d1d4d1;fill-rule:nonzero;"/><path d="M102.4,354.133c-4.71,0 -8.533,-3.814 -8.533,-8.533l0,-76.8c0,-4.719 3.823,-8.533 8.533,-8.533c4.71,0 8.533,3.814 8.533,8.533l0,76.8c0,4.719 -3.823,8.533 -8.533,8.533Z" style="fill:#d1d4d1;fill-rule:nonzero;"/><path d="M145.067,354.133c-4.711,0 -8.534,-3.814 -8.534,-8.533l0,-76.8c0,-4.719 3.823,-8.533 8.534,-8.533c4.71,0 8.533,3.814 8.533,8.533l0,76.8c0,4.719 -3.823,8.533 -8.533,8.533Z" style="fill:#d1d4d1;fill-rule:nonzero;"/><path d="M170.667,354.133c-4.711,0 -8.534,-3.814 -8.534,-8.533l0,-76.8c0,-4.719 3.823,-8.533 8.534,-8.533c4.71,0 8.533,3.814 8.533,8.533l0,76.8c0,4.719 -3.823,8.533 -8.533,8.533Z" style="fill:#d1d4d1;fill-rule:nonzero;"/><path d="M196.267,354.133c-4.711,0 -8.534,-3.814 -8.534,-8.533l0,-76.8c0,-4.719 3.823,-8.533 8.534,-8.533c4.71,0 8.533,3.814 8.533,8.533l0,76.8c0,4.719 -3.823,8.533 -8.533,8.533Z" style="fill:#d1d4d1;fill-rule:nonzero;"/><path d="M247.467,354.133c-4.711,0 -8.534,-3.814 -8.534,-8.533l0,-76.8c0,-4.719 3.823,-8.533 8.534,-8.533c4.71,0 8.533,3.814 8.533,8.533l0,76.8c0,4.719 -3.823,8.533 -8.533,8.533Z" style="fill:#d1d4d1;fill-rule:nonzero;"/><path d="M290.133,354.133c-4.71,0 -8.533,-3.814 -8.533,-8.533l0,-76.8c0,-4.719 3.823,-8.533 8.533,-8.533c4.711,0 8.534,3.814 8.534,8.533l0,76.8c0,4.719 -3.823,8.533 -8.534,8.533Z" style="fill:#d1d4d1;fill-rule:nonzero;"/><path d="M315.733,354.133c-4.71,0 -8.533,-3.814 -8.533,-8.533l0,-76.8c0,-4.719 3.823,-8.533 8.533,-8.533c4.711,0 8.534,3.814 8.534,8.533l0,76.8c0,4.719 -3.823,8.533 -8.534,8.533Z" style="fill:#d1d4d1;fill-rule:nonzero;"/><path d="M358.4,354.133c-4.71,0 -8.533,-3.814 -8.533,-8.533l0,-76.8c0,-4.719 3.823,-8.533 8.533,-8.533c4.71,0 8.533,3.814 8.533,8.533l0,76.8c0,4.719 -3.823,8.533 -8.533,8.533Z" style="fill:#d1d4d1;fill-rule:nonzero;"/><path d="M384,354.133c-4.71,0 -8.533,-3.814 -8.533,-8.533l0,-76.8c0,-4.719 3.823,-8.533 8.533,-8.533c4.71,0 8.533,3.814 8.533,8.533l0,76.8c0,4.719 -3.823,8.533 -8.533,8.533Z" style="fill:#d1d4d1;fill-rule:nonzero;"/><path d="M435.2,354.133c-4.71,0 -8.533,-3.814 -8.533,-8.533l0,-76.8c0,-4.719 3.823,-8.533 8.533,-8.533c4.71,0 8.533,3.814 8.533,8.533l0,76.8c0,4.719 -3.823,8.533 -8.533,8.533Z" style="fill:#d1d4d1;fill-rule:nonzero;"/><path d="M42.667,226.133c-4.711,0 -8.534,-3.814 -8.534,-8.533l0,-119.467c0,-4.719 3.823,-8.533 8.534,-8.533c4.71,0 8.533,3.814 8.533,8.533l0,119.467c0,4.719 -3.823,8.533 -8.533,8.533Z" style="fill:#d1d4d1;fill-rule:nonzero;"/><path d="M469.333,226.133c-4.71,0 -8.533,-3.814 -8.533,-8.533l0,-119.467c0,-4.719 3.823,-8.533 8.533,-8.533c4.711,0 8.534,3.814 8.534,8.533l0,119.467c0,4.719 -3.823,8.533 -8.534,8.533Z" style="fill:#d1d4d1;fill-rule:nonzero;"/><path d="M76.8,226.133c-4.71,0 -8.533,-3.814 -8.533,-8.533l0,-119.467c0,-4.719 3.823,-8.533 8.533,-8.533c4.71,0 8.533,3.814 8.533,8.533l0,119.467c0,4.719 -3.823,8.533 -8.533,8.533Z" style="fill:#d1d4d1;fill-rule:nonzero;"/><path d="M102.4,226.133c-4.71,0 -8.533,-3.814 -8.533,-8.533l0,-119.467c0,-4.719 3.823,-8.533 8.533,-8.533c4.71,0 8.533,3.814 8.533,8.533l0,119.467c0,4.719 -3.823,8.533 -8.533,8.533Z" style="fill:#d1d4d1;fill-rule:nonzero;"/><path d="M145.067,226.133c-4.711,0 -8.534,-3.814 -8.534,-8.533l0,-119.467c0,-4.719 3.823,-8.533 8.534,-8.533c4.71,0 8.533,3.814 8.533,8.533l0,119.467c0,4.719 -3.823,8.533 -8.533,8.533Z" style="fill:#d1d4d1;fill-rule:nonzero;"/><path d="M170.667,226.133c-4.711,0 -8.534,-3.814 -8.534,-8.533l0,-119.467c0,-4.719 3.823,-8.533 8.534,-8.533c4.71,0 8.533,3.814 8.533,8.533l0,119.467c0,4.719 -3.823,8.533 -8.533,8.533Z" style="fill:#d1d4d1;fill-rule:nonzero;"/><path d="M196.267,226.133c-4.711,0 -8.534,-3.814 -8.534,-8.533l0,-119.467c0,-4.719 3.823,-8.533 8.534,-8.533c4.71,0 8.533,3.814 8.533,8.533l0,119.467c0,4.719 -3.823,8.533 -8.533,8.533Z" style="fill:#d1d4d1;fill-rule:nonzero;"/><path d="M247.467,226.133c-4.711,0 -8.534,-3.814 -8.534,-8.533l0,-119.467c0,-4.719 3.823,-8.533 8.534,-8.533c4.71,0 8.533,3.814 8.533,8.533l0,119.467c0,4.719 -3.823,8.533 -8.533,8.533Z" style="fill:#d1d4d1;fill-rule:nonzero;"/><path d="M290.133,226.133c-4.71,0 -8.533,-3.814 -8.533,-8.533l0,-119.467c0,-4.719 3.823,-8.533 8.533,-8.533c4.711,0 8.534,3.814 8.534,8.533l0,119.467c0,4.719 -3.823,8.533 -8.534,8.533Z" style="fill:#d1d4d1;fill-rule:nonzero;"/><path d="M315.733,226.133c-4.71,0 -8.533,-3.814 -8.533,-8.533l0,-119.467c0,-4.719 3.823,-8.533 8.533,-8.533c4.711,0 8.534,3.814 8.534,8.533l0,119.467c0,4.719 -3.823,8.533 -8.534,8.533Z" style="fill:#d1d4d1;fill-rule:nonzero;"/><path d="M358.4,226.133c-4.71,0 -8.533,-3.814 -8.533,-8.533l0,-119.467c0,-4.719 3.823,-8.533 8.533,-8.533c4.71,0 8.533,3.814 8.533,8.533l0,119.467c0,4.719 -3.823,8.533 -8.533,8.533Z" style="fill:#d1d4d1;fill-rule:nonzero;"/><path d="M384,226.133c-4.71,0 -8.533,-3.814 -8.533,-8.533l0,-119.467c0,-4.719 3.823,-8.533 8.533,-8.533c4.71,0 8.533,3.814 8.533,8.533l0,119.467c0,4.719 -3.823,8.533 -8.533,8.533Z" style="fill:#d1d4d1;fill-rule:nonzero;"/><path d="M435.2,226.133c-4.71,0 -8.533,-3.814 -8.533,-8.533l0,-119.467c0,-4.719 3.823,-8.533 8.533,-8.533c4.71,0 8.533,3.814 8.533,8.533l0,119.467c0,4.719 -3.823,8.533 -8.533,8.533Z" style="fill:#d1d4d1;fill-rule:nonzero;"/><path d="M76.8,405.333c-4.71,0 -8.533,-3.814 -8.533,-8.533l0,-8.533c0,-4.719 3.823,-8.534 8.533,-8.534c4.71,0 8.533,3.815 8.533,8.534l0,8.533c0,4.719 -3.823,8.533 -8.533,8.533Z" style="fill:#d1d4d1;fill-rule:nonzero;"/><path d="M102.4,405.333c-4.71,0 -8.533,-3.814 -8.533,-8.533l0,-8.533c0,-4.719 3.823,-8.534 8.533,-8.534c4.71,0 8.533,3.815 8.533,8.534l0,8.533c0,4.719 -3.823,8.533 -8.533,8.533Z" style="fill:#d1d4d1;fill-rule:nonzero;"/><path d="M128,405.333c-4.71,0 -8.533,-3.814 -8.533,-8.533l0,-8.533c0,-4.719 3.823,-8.534 8.533,-8.534c4.71,0 8.533,3.815 8.533,8.534l0,8.533c0,4.719 -3.823,8.533 -8.533,8.533Z" style="fill:#d1d4d1;fill-rule:nonzero;"/><path d="M153.6,405.333c-4.71,0 -8.533,-3.814 -8.533,-8.533l0,-8.533c0,-4.719 3.823,-8.534 8.533,-8.534c4.71,0 8.533,3.815 8.533,8.534l0,8.533c0,4.719 -3.823,8.533 -8.533,8.533Z" style="fill:#d1d4d1;fill-rule:nonzero;"/><path d="M179.2,405.333c-4.71,0 -8.533,-3.814 -8.533,-8.533l0,-8.533c0,-4.719 3.823,-8.534 8.533,-8.534c4.71,0 8.533,3.815 8.533,8.534l0,8.533c0,4.719 -3.823,8.533 -8.533,8.533Z" style="fill:#d1d4d1;fill-rule:nonzero;"/><path d="M204.8,405.333c-4.71,0 -8.533,-3.814 -8.533,-8.533l0,-8.533c0,-4.719 3.823,-8.534 8.533,-8.534c4.71,0 8.533,3.815 8.533,8.534l0,8.533c0,4.719 -3.823,8.533 -8.533,8.533Z" style="fill:#d1d4d1;fill-rule:nonzero;"/><path d="M230.4,405.333c-4.71,0 -8.533,-3.814 -8.533,-8.533l0,-8.533c0,-4.719 3.823,-8.534 8.533,-8.534c4.71,0 8.533,3.815 8.533,8.534l0,8.533c0,4.719 -3.823,8.533 -8.533,8.533Z" style="fill:#d1d4d1;fill-rule:nonzero;"/><path d="M256,405.333c-4.71,0 -8.533,-3.814 -8.533,-8.533l0,-8.533c0,-4.719 3.823,-8.534 8.533,-8.534c4.71,0 8.533,3.815 8.533,8.534l0,8.533c0,4.719 -3.823,8.533 -8.533,8.533Z" style="fill:#d1d4d1;fill-rule:nonzero;"/><path d="M281.6,405.333c-4.71,0 -8.533,-3.814 -8.533,-8.533l0,-8.533c0,-4.719 3.823,-8.534 8.533,-8.534c4.71,0 8.533,3.815 8.533,8.534l0,8.533c0,4.719 -3.823,8.533 -8.533,8.533Z" style="fill:#d1d4d1;fill-rule:nonzero;"/><path d="M307.2,405.333c-4.71,0 -8.533,-3.814 -8.533,-8.533l0,-8.533c0,-4.719 3.823,-8.534 8.533,-8.534c4.71,0 8.533,3.815 8.533,8.534l0,8.533c0,4.719 -3.823,8.533 -8.533,8.533Z" style="fill:#d1d4d1;fill-rule:nonzero;"/><path d="M332.8,405.333c-4.71,0 -8.533,-3.814 -8.533,-8.533l0,-8.533c0,-4.719 3.823,-8.534 8.533,-8.534c4.71,0 8.533,3.815 8.533,8.534l0,8.533c0,4.719 -3.823,8.533 -8.533,8.533Z" style="fill:#d1d4d1;fill-rule:nonzero;"/><path d="M358.4,405.333c-4.71,0 -8.533,-3.814 -8.533,-8.533l0,-8.533c0,-4.719 3.823,-8.534 8.533,-8.534c4.71,0 8.533,3.815 8.533,8.534l0,8.533c0,4.719 -3.823,8.533 -8.533,8.533Z" style="fill:#d1d4d1;fill-rule:nonzero;"/><path d="M384,405.333c-4.71,0 -8.533,-3.814 -8.533,-8.533l0,-8.533c0,-4.719 3.823,-8.534 8.533,-8.534c4.71,0 8.533,3.815 8.533,8.534l0,8.533c0,4.719 -3.823,8.533 -8.533,8.533Z" style="fill:#d1d4d1;fill-rule:nonzero;"/><path d="M409.6,405.333c-4.71,0 -8.533,-3.814 -8.533,-8.533l0,-8.533c0,-4.719 3.823,-8.534 8.533,-8.534c4.71,0 8.533,3.815 8.533,8.534l0,8.533c0,4.719 -3.823,8.533 -8.533,8.533Z" style="fill:#d1d4d1;fill-rule:nonzero;"/><path d="M435.2,405.333c-4.71,0 -8.533,-3.814 -8.533,-8.533l0,-8.533c0,-4.719 3.823,-8.534 8.533,-8.534c4.71,0 8.533,3.815 8.533,8.534l0,8.533c0,4.719 -3.823,8.533 -8.533,8.533Z" style="fill:#d1d4d1;fill-rule:nonzero;"/><g><path d="M68.267,473.6l-68.267,0l0,-59.733c0,-4.719 3.823,-8.534 8.533,-8.534c4.711,0 8.534,3.815 8.534,8.534l0,42.666l51.2,0c4.71,0 8.533,3.815 8.533,8.534c0,4.719 -3.823,8.533 -8.533,8.533Z" style="fill:#ff8700;fill-rule:nonzero;"/><path d="M512,473.6l-59.733,0c-4.711,0 -8.534,-3.814 -8.534,-8.533c0,-4.719 3.823,-8.534 8.534,-8.534l42.666,0l0,-42.666c0,-4.719 3.823,-8.534 8.534,-8.534c4.71,0 8.533,3.815 8.533,8.534l0,59.733Z" style="fill:#ff8700;fill-rule:nonzero;"/></g><g><path d="M503.467,106.667c-4.711,0 -8.534,-3.815 -8.534,-8.534l0,-42.666l-51.2,0c-4.71,0 -8.533,-3.815 -8.533,-8.534c0,-4.719 3.823,-8.533 8.533,-8.533l68.267,0l0,59.733c0,4.719 -3.823,8.534 -8.533,8.534Z" style="fill:#ff8700;fill-rule:nonzero;"/><path d="M8.533,106.667c-4.71,0 -8.533,-3.815 -8.533,-8.534l0,-59.733l59.733,0c4.711,0 8.534,3.814 8.534,8.533c0,4.719 -3.823,8.534 -8.534,8.534l-42.666,0l0,42.666c0,4.719 -3.823,8.534 -8.534,8.534Z" style="fill:#ff8700;fill-rule:nonzero;"/></g><path d="M503.467,251.733l-494.934,0c-4.71,0 -8.533,-3.814 -8.533,-8.533c0,-4.719 3.823,-8.533 8.533,-8.533l494.934,0c4.71,0 8.533,3.814 8.533,8.533c0,4.719 -3.823,8.533 -8.533,8.533Z" style="fill:#ff8700;fill-rule:nonzero;"/></g></svg>